<svg width="12" height="12" viewBox="0 0 12 12" fill="none" xmlns="http://www.w3.org/2000/svg"> <path d="M5.70163 11.6722C6.47116 11.6722 7.19382 11.5257 7.8696 11.2327C8.54538 10.9398 9.14108 10.5355 9.65671 10.0198C10.1762 9.50421 10.5825 8.90851 10.8755 8.23273C11.1684 7.55304 11.3149 6.82843 11.3149 6.0589C11.3149 5.29327 11.1665 4.57257 10.8696 3.89679C10.5766 3.2171 10.1704 2.61945 9.65085 2.10382C9.13522 1.58429 8.53952 1.17804 7.86374 0.885071C7.18796 0.592102 6.4653 0.445618 5.69577 0.445618C4.93015 0.445618 4.20944 0.592102 3.53366 0.885071C2.85788 1.17804 2.26022 1.58429 1.74069 2.10382C1.22507 2.61945 0.82077 3.2171 0.527802 3.89679C0.234833 4.57257 0.0883484 5.29327 0.0883484 6.0589C0.0883484 6.82843 0.234833 7.55304 0.527802 8.23273C0.824677 8.90851 1.23093 9.50421 1.74655 10.0198C2.26218 10.5355 2.85788 10.9398 3.53366 11.2327C4.20944 11.5257 4.9321 11.6722 5.70163 11.6722ZM5.09225 8.75421C5.00241 8.75421 4.92233 8.73468 4.85202 8.69562C4.78171 8.65656 4.71335 8.59601 4.64694 8.51398L3.2114 6.76202C3.12936 6.66046 3.08835 6.55304 3.08835 6.43976C3.08835 6.32257 3.12741 6.22491 3.20554 6.14679C3.28366 6.06476 3.37936 6.02374 3.49265 6.02374C3.56296 6.02374 3.62741 6.03937 3.686 6.07062C3.7485 6.09796 3.80905 6.15265 3.86765 6.23468L5.06882 7.7464L7.50632 3.84991C7.60007 3.69757 7.71921 3.6214 7.86374 3.6214C7.97311 3.6214 8.07077 3.65656 8.15671 3.72687C8.24265 3.79718 8.28561 3.89093 8.28561 4.00812C8.28561 4.06281 8.27194 4.11945 8.2446 4.17804C8.22116 4.23273 8.19382 4.28546 8.16257 4.33624L5.50827 8.51398C5.4028 8.67413 5.26413 8.75421 5.09225 8.75421Z" fill="black"/> </svg>